<?xml version="1.0" standalone="no"?>
<!DOCTYPE svg PUBLIC "-//W3C//DTD SVG 20010904//EN"
 "http://www.w3.org/TR/2001/REC-SVG-20010904/DTD/svg10.dtd">
<svg version="1.0" xmlns="http://www.w3.org/2000/svg"
 width="1960.000000pt" height="1960.000000pt" viewBox="0 0 1960.000000 1960.000000"
 preserveAspectRatio="xMidYMid meet">
<metadata>
Created by potrace 1.14, written by Peter Selinger 2001-2017
</metadata>
<g transform="translate(0.000000,1960.000000) scale(0.100000,-0.100000)"
fill="#000000" stroke="none">
<path d="M6989 15966 c-2 -2 -51 -7 -109 -10 -58 -4 -118 -9 -135 -10 -80 -9
-142 -16 -160 -20 -11 -2 -47 -7 -80 -11 -33 -4 -69 -9 -80 -11 -11 -1 -38 -6
-60 -9 -65 -10 -355 -74 -415 -91 -30 -9 -62 -18 -70 -19 -82 -18 -344 -106
-530 -178 -161 -63 -536 -242 -571 -273 -8 -8 -19 -14 -23 -14 -14 0 -226
-130 -366 -224 -116 -78 -308 -222 -390 -292 -153 -131 -215 -188 -335 -308
-135 -136 -258 -268 -307 -331 -12 -16 -31 -39 -41 -50 -10 -11 -37 -45 -60
-75 -23 -30 -45 -57 -48 -60 -25 -23 -240 -343 -319 -475 -80 -135 -86 -148
-171 -315 -153 -304 -267 -603 -363 -950 -24 -85 -67 -267 -72 -305 -1 -11 -9
-51 -17 -90 -8 -38 -18 -90 -21 -115 -3 -25 -8 -54 -10 -65 -2 -11 -7 -45 -11
-75 -3 -30 -8 -66 -10 -80 -3 -22 -13 -115 -20 -195 -9 -93 -17 -316 -18 -500
0 -209 -5 -235 -36 -235 -13 0 -298 -146 -333 -171 -14 -11 -29 -19 -33 -19
-18 0 -390 -257 -441 -305 -6 -5 -30 -26 -54 -45 -138 -111 -352 -327 -475
-480 -33 -41 -62 -77 -65 -80 -11 -10 -128 -177 -172 -245 -204 -319 -383
-732 -454 -1047 -2 -10 -6 -26 -8 -35 -31 -125 -64 -307 -81 -443 -15 -121
-20 -245 -20 -465 1 -304 11 -414 70 -740 25 -139 112 -430 180 -605 76 -196
313 -645 346 -658 5 -2 9 -8 9 -14 0 -20 185 -263 299 -393 59 -66 272 -277
330 -325 29 -25 59 -50 65 -55 36 -34 196 -152 286 -213 95 -63 363 -222 376
-222 2 0 51 -22 107 -49 167 -79 330 -139 590 -216 47 -14 327 -73 376 -80 14
-1 49 -6 76 -10 28 -3 65 -8 83 -11 19 -2 68 -8 110 -12 102 -9 12871 -9
12987 1 50 4 104 9 120 12 17 3 48 7 70 10 661 90 1268 353 1799 779 120 97
375 347 472 466 129 156 265 349 353 500 54 94 197 390 235 488 106 272 189
590 221 847 4 28 8 61 10 74 26 160 27 713 1 861 -3 14 -7 45 -10 70 -28 244
-116 583 -223 854 -76 194 -205 442 -331 635 -202 311 -507 645 -778 851 -32
25 -65 51 -73 58 -20 19 -289 196 -346 227 -140 77 -240 128 -340 170 -60 26
-114 51 -118 55 -4 4 -23 72 -42 151 -98 417 -277 835 -516 1210 -29 46 -57
89 -62 94 -4 6 -35 48 -69 95 -155 217 -335 418 -538 602 -115 104 -136 122
-200 171 -30 23 -57 45 -60 48 -12 13 -196 141 -289 200 l-100 64 -1 505 c-1
278 -4 516 -6 530 -3 14 -19 55 -36 93 -51 110 -154 191 -276 217 -49 11
-2393 9 -2422 -1 -8 -3 -24 -9 -35 -13 -106 -39 -200 -132 -238 -236 -25 -67
-25 -72 -26 -382 -1 -246 -3 -288 -16 -288 -20 0 -238 -72 -348 -116 -51 -19
-159 -69 -241 -110 -82 -41 -150 -73 -152 -72 -1 2 -17 30 -35 63 -112 206
-335 531 -498 725 -186 223 -436 476 -615 625 -27 22 -57 47 -66 55 -42 35
-59 48 -130 103 -41 31 -80 61 -85 66 -6 4 -53 37 -105 72 -52 35 -97 67 -100
70 -3 4 -81 52 -175 109 -284 170 -634 334 -941 440 -207 71 -542 162 -684
185 -19 3 -46 8 -60 10 -14 3 -36 8 -50 10 -65 13 -280 42 -373 50 -34 3 -82
8 -107 11 -54 6 -665 15 -671 10z m576 -730 c160 -15 191 -18 208 -22 11 -2
45 -6 76 -9 31 -3 67 -8 81 -11 33 -6 56 -10 110 -20 25 -4 47 -8 50 -9 3 -1
23 -5 45 -9 205 -40 555 -149 777 -242 129 -54 438 -205 468 -229 8 -7 35 -23
60 -36 25 -13 47 -27 50 -30 3 -3 16 -12 30 -19 33 -17 218 -138 251 -164 15
-12 39 -30 54 -41 33 -23 210 -163 251 -197 114 -96 377 -355 476 -468 249
-285 461 -595 634 -925 69 -131 174 -359 194 -419 6 -20 16 -36 21 -36 5 0 30
16 56 35 27 19 53 39 58 43 82 60 296 188 440 262 164 84 462 209 540 226 11
2 48 13 82 24 82 26 279 73 363 85 14 2 39 6 55 9 30 5 120 16 165 21 14 2 42
3 63 4 l37 1 0 375 0 375 720 0 720 0 0 -495 0 -494 53 -23 c73 -31 324 -159
378 -193 103 -66 188 -122 239 -159 274 -200 537 -466 740 -750 68 -96 170
-257 170 -270 0 -3 -894 -6 -1986 -6 l-1986 0 -46 38 c-56 44 -79 64 -112 92
-14 12 -79 61 -145 109 -550 398 -1189 637 -1870 698 -171 15 -723 7 -754 -11
-3 -2 -37 -7 -76 -11 -162 -15 -453 -82 -662 -151 -305 -100 -509 -197 -858
-407 -89 -54 -307 -218 -440 -331 l-30 -25 -2189 -1 -2188 0 6 53 c6 61 32
211 47 276 6 25 12 57 14 71 18 135 170 606 250 778 14 29 25 55 25 58 0 15
170 342 230 441 38 64 70 120 70 124 0 4 3 9 8 11 4 2 34 44 67 93 218 328
509 648 851 934 57 49 271 207 324 241 30 19 57 37 60 40 5 6 122 78 205 126
146 84 323 172 472 235 54 22 107 44 118 49 62 28 315 111 440 145 128 34 136
36 162 40 11 2 29 6 40 9 10 3 32 8 48 11 38 6 72 13 110 21 17 4 41 8 55 9
14 1 34 5 45 9 12 3 39 8 60 10 22 2 65 7 95 10 92 12 131 15 235 22 55 3 101
7 102 8 5 5 429 -3 488 -8z m2540 -4081 c136 -16 287 -48 450 -97 548 -165
1035 -526 1373 -1018 32 -47 61 -92 65 -100 4 -8 19 -35 33 -60 154 -268 271
-612 310 -910 4 -30 9 -66 11 -80 2 -14 6 -117 8 -230 4 -244 -5 -344 -51
-570 -151 -741 -669 -1412 -1354 -1751 -121 -59 -317 -140 -375 -153 -5 -2
-28 -8 -50 -14 -22 -6 -43 -12 -47 -12 -4 -1 -22 -6 -40 -11 -73 -21 -253 -54
-363 -66 -140 -15 -550 -7 -625 12 -8 2 -33 6 -55 9 -22 4 -51 8 -65 11 -14 3
-34 7 -45 9 -226 44 -512 152 -727 274 -297 169 -592 430 -798 706 -269 362
-445 819 -488 1266 -9 92 -8 446 0 516 66 512 230 916 529 1304 65 85 285 314
364 380 205 171 472 330 710 422 123 48 297 102 364 113 19 3 37 7 40 9 3 2
24 7 46 10 22 4 67 11 100 16 33 5 89 12 125 16 36 3 67 8 69 10 5 5 428 -4
486 -11z m-3411 -447 c-5 -7 -31 -49 -59 -93 -106 -166 -192 -332 -303 -587
-12 -27 -18 -48 -15 -48 3 0 1 -6 -5 -12 -21 -26 -146 -425 -157 -502 -2 -12
-15 -78 -29 -147 -14 -70 -28 -155 -31 -190 -4 -35 -8 -70 -11 -77 -25 -79
-25 -710 0 -872 5 -32 18 -119 21 -145 4 -30 14 -87 20 -115 3 -14 10 -45 15
-70 23 -112 37 -167 77 -302 32 -111 103 -310 124 -351 6 -10 12 -26 14 -35 4
-23 132 -285 186 -382 42 -75 225 -361 238 -370 4 -3 18 -21 31 -40 14 -19 30
-42 37 -50 166 -210 384 -434 563 -580 30 -25 57 -47 60 -51 11 -13 239 -179
246 -179 4 0 16 -7 26 -17 10 -9 27 -21 37 -27 11 -6 63 -37 115 -69 288 -175
656 -328 994 -412 152 -37 325 -71 417 -80 33 -4 67 -8 75 -10 72 -19 585 -27
750 -12 156 14 325 40 520 82 173 37 489 140 650 212 140 63 306 148 405 208
60 36 110 65 112 65 10 0 341 241 375 273 7 6 40 35 73 62 111 93 337 324 425
434 19 24 40 48 45 55 58 62 305 422 305 443 0 3 6 14 14 22 23 25 158 295
213 426 124 294 223 659 259 950 3 22 7 49 9 60 19 93 27 596 12 765 -8 96
-16 164 -22 199 -2 13 -7 43 -10 65 -4 23 -8 48 -9 56 -23 123 -61 289 -86
375 -12 39 -23 80 -26 92 -2 12 -22 70 -43 130 -103 284 -221 530 -366 758
l-63 100 1826 3 c1004 1 1827 0 1830 -3 15 -14 84 -332 97 -444 4 -30 8 -63
10 -73 2 -11 5 -39 6 -62 l3 -43 85 -22 c572 -150 1137 -539 1504 -1036 37
-49 70 -94 75 -100 13 -16 117 -186 141 -230 12 -22 25 -47 31 -55 23 -36 112
-235 149 -332 66 -173 139 -442 156 -573 3 -22 7 -50 10 -63 4 -24 12 -96 21
-194 11 -126 5 -442 -11 -558 -2 -19 -7 -55 -10 -80 -3 -25 -8 -56 -10 -70 -3
-14 -7 -34 -9 -45 -102 -530 -332 -1000 -686 -1400 -77 -87 -248 -250 -339
-324 -97 -79 -312 -231 -327 -231 -4 0 -15 -6 -23 -14 -29 -27 -305 -163 -421
-208 -154 -60 -342 -116 -475 -142 -113 -22 -134 -25 -190 -32 -27 -3 -55 -7
-62 -9 -49 -16 -940 -18 -6493 -19 -5536 0 -6391 3 -6500 18 -14 2 -50 7 -80
10 -64 8 -251 43 -295 56 -16 5 -79 24 -140 41 -616 178 -1205 613 -1573 1161
-176 261 -299 528 -390 843 -101 349 -132 777 -82 1147 6 43 13 91 15 108 2
16 8 53 14 82 6 29 13 64 16 77 10 54 46 184 79 282 179 548 533 1047 985
1389 18 14 38 30 44 35 68 58 296 194 449 268 169 82 431 177 558 202 8 2 15
4 15 5 0 1 8 3 18 5 11 2 21 6 24 9 3 3 -2 45 -12 93 -9 49 -19 102 -22 118
-2 17 -6 41 -9 55 -4 25 -13 159 -18 282 -2 37 -1 70 2 73 3 3 858 5 1899 5
1513 0 1893 -3 1887 -12z"/>
<path d="M4880 13496 c-83 -24 -123 -47 -180 -104 -110 -112 -123 -166 -118
-524 3 -241 6 -279 23 -321 44 -107 141 -200 249 -236 59 -19 84 -20 796 -21
633 0 743 2 794 15 130 34 229 128 275 261 19 55 20 80 18 349 -2 261 -4 295
-22 338 -44 109 -142 200 -252 236 -62 21 -78 21 -801 20 -571 0 -747 -3 -782
-13z"/>
</g>
</svg>
